<svg width="225" height="115" viewBox="0 0 225 115" fill="none" xmlns="http://www.w3.org/2000/svg">
<path d="M5.04477 7.07763L9.06219 12H7.18374L3.39941 7.43412V12H1.8226V2.40206H3.39941V6.70742L7.04662 2.40206H8.92508L5.04477 7.07763ZM18.2377 12H16.5374L15.8656 10.0667H11.7796L11.1078 12H9.39384L12.8765 2.40206H14.7687L18.2377 12ZM13.8226 4.25309L12.3006 8.58587H15.3446L13.8226 4.25309ZM24.4042 11.0402V12.1371H22.8548V11.0402C21.4837 10.9305 20.3959 10.542 19.5915 9.87474C18.7871 9.20746 18.3849 8.31622 18.3849 7.20103C18.3849 6.09498 18.7871 5.20831 19.5915 4.54103C20.4051 3.8646 21.4928 3.47154 22.8548 3.36185V2.26494H24.4042V3.36185C25.7479 3.47154 26.8266 3.8646 27.6401 4.54103C28.4536 5.21745 28.8604 6.10412 28.8604 7.20103C28.8604 8.30708 28.4536 9.19831 27.6401 9.87474C26.8357 10.542 25.7571 10.9305 24.4042 11.0402ZM22.8548 4.80154C20.9261 4.97522 19.9617 5.77505 19.9617 7.20103C19.9617 8.62701 20.9261 9.42684 22.8548 9.60051V4.80154ZM24.4042 4.80154V9.60051C26.3238 9.40856 27.2836 8.60873 27.2836 7.20103C27.2836 5.77505 26.3238 4.97522 24.4042 4.80154ZM31.746 7.90031V10.4918H35.9965V12H30.1692V2.40206H35.928V3.9103H31.746V6.40577H35.5852V7.90031H31.746ZM44.6384 2.40206V10.4918H45.6668V13.8373H44.09V12H38.2626V13.8373H36.6858V10.4918H37.5771C38.1347 9.76962 38.4135 8.66814 38.4135 7.18732V2.40206H44.6384ZM39.3047 10.4918H43.0616V3.88288H39.9903V7.21474C39.9903 8.64072 39.7618 9.73306 39.3047 10.4918ZM47.0406 2.40206H50.5781C51.4831 2.40206 52.2372 2.70371 52.8405 3.30701C53.4529 3.9103 53.7591 4.65986 53.7591 5.55567C53.7591 6.44233 53.4529 7.19189 52.8405 7.80433C52.2372 8.40763 51.4831 8.70928 50.5781 8.70928H48.6174V12H47.0406V2.40206ZM48.6174 7.22845H50.5781C51.0443 7.22845 51.4282 7.07306 51.7299 6.76226C52.0315 6.44233 52.1823 6.04013 52.1823 5.55567C52.1823 5.0712 52.0315 4.67357 51.7299 4.36278C51.4282 4.04285 51.0443 3.88288 50.5781 3.88288H48.6174V7.22845ZM62.1166 12H60.4164L59.7446 10.0667H55.6586L54.9867 12H53.2728L56.7555 2.40206H58.6477L62.1166 12ZM57.7016 4.25309L56.1796 8.58587H59.2236L57.7016 4.25309Z" fill="white"/>
<path d="M47.6246 36.227V26.6702H51.454V49.9795H47.6246V39.8899H37.6349V49.9795H33.8055V26.6702H37.6349V36.227H47.6246ZM69.9323 36.227V26.6702H73.7617V49.9795H69.9323V39.8899H59.9426V49.9795H56.1133V26.6702H59.9426V36.227H69.9323ZM97.9009 46.916C95.5699 49.2469 92.7173 50.4124 89.343 50.4124C85.9687 50.4124 83.105 49.2469 80.7519 46.916C78.421 44.5629 77.2555 41.6991 77.2555 38.3248C77.2555 34.9506 78.421 32.0979 80.7519 29.767C83.105 27.4139 85.9687 26.2373 89.343 26.2373C92.7173 26.2373 95.5699 27.4139 97.9009 29.767C100.254 32.0979 101.431 34.9506 101.431 38.3248C101.431 41.6991 100.254 44.5629 97.9009 46.916ZM83.4491 44.3187C85.0697 45.8948 87.0343 46.6829 89.343 46.6829C91.674 46.6829 93.6275 45.8948 95.2036 44.3187C96.802 42.7203 97.6012 40.7224 97.6012 38.3248C97.6012 35.9273 96.802 33.9405 95.2036 32.3643C93.6275 30.766 91.674 29.9668 89.343 29.9668C87.0121 29.9668 85.0475 30.766 83.4491 32.3643C81.873 33.9405 81.0849 35.9273 81.0849 38.3248C81.0849 40.7002 81.873 42.6981 83.4491 44.3187ZM118.643 37.892C119.664 38.4247 120.463 39.1684 121.04 40.123C121.617 41.0554 121.906 42.1209 121.906 43.3197C121.906 45.2288 121.229 46.8161 119.875 48.0815C118.521 49.3468 116.867 49.9795 114.913 49.9795H104.924V26.6702H114.181C116.09 26.6702 117.699 27.2918 119.009 28.5349C120.341 29.7781 121.007 31.3099 121.007 33.1302C121.007 35.1281 120.219 36.7154 118.643 37.892ZM114.181 30.2665H108.753V36.3935H114.181C115.024 36.3935 115.735 36.1049 116.312 35.5277C116.889 34.9284 117.178 34.1958 117.178 33.33C117.178 32.4642 116.889 31.7428 116.312 31.1656C115.735 30.5662 115.024 30.2665 114.181 30.2665ZM108.753 46.3832H114.913C115.801 46.3832 116.545 46.0724 117.144 45.4508C117.766 44.8071 118.077 44.0301 118.077 43.1199C118.077 42.2097 117.766 41.4439 117.144 40.8223C116.545 40.1785 115.801 39.8566 114.913 39.8566H108.753V46.3832ZM144.561 49.9795H140.432L138.8 45.2843H128.877L127.246 49.9795H123.083L131.541 26.6702H136.136L144.561 49.9795ZM133.839 31.1656L130.143 41.688H137.535L133.839 31.1656ZM164.217 26.6702V46.3166H166.714V54.4416H162.885V49.9795H147.068V26.6702H150.897V46.3166H160.387V26.6702H164.217ZM187.873 49.9795H184.044V34.1625L173.055 49.9795H170.058V26.6702H173.888V42.4872L184.876 26.6702H187.873V49.9795ZM206.114 24.3393H196.791V21.2092H206.114V24.3393ZM210.343 49.9795H206.514V34.1625L195.525 49.9795H192.528V26.6702H196.358V42.4872L207.347 26.6702H210.343V49.9795Z" fill="white"/>
<path d="M47.6246 96.557V87.0002H51.454V110.309H47.6246V100.22H37.6349V110.309H33.8055V87.0002H37.6349V96.557H47.6246ZM69.8324 98.2219C70.8536 98.7547 71.6528 99.4984 72.23 100.453C72.8071 101.385 73.0957 102.451 73.0957 103.65C73.0957 105.559 72.4187 107.146 71.0645 108.411C69.7103 109.677 68.0565 110.309 66.1029 110.309H56.1133V87.0002H65.3704C67.2795 87.0002 68.889 87.6217 70.1987 88.8649C71.5307 90.1081 72.1967 91.6398 72.1967 93.4602C72.1967 95.4581 71.4086 97.0454 69.8324 98.2219ZM65.3704 90.5965H59.9426V96.7235H65.3704C66.2139 96.7235 66.9243 96.4349 67.5015 95.8577C68.0787 95.2583 68.3673 94.5257 68.3673 93.66C68.3673 92.7942 68.0787 92.0727 67.5015 91.4955C66.9243 90.8961 66.2139 90.5965 65.3704 90.5965ZM59.9426 106.713H66.1029C66.9909 106.713 67.7346 106.402 68.334 105.781C68.9556 105.137 69.2663 104.36 69.2663 103.45C69.2663 102.54 68.9556 101.774 68.334 101.152C67.7346 100.508 66.9909 100.187 66.1029 100.187H59.9426V106.713ZM80.2667 100.353V106.647H90.5894V110.309H76.4373V87.0002H90.4229V90.6631H80.2667V96.7235H89.5904V100.353H80.2667ZM104.922 110.742C101.414 110.742 98.5061 109.588 96.1974 107.279C93.8887 104.926 92.7343 102.051 92.7343 98.6548C92.7343 95.2361 93.8887 92.3724 96.1974 90.0637C98.4839 87.7327 101.392 86.5673 104.922 86.5673C107.031 86.5673 108.973 87.0668 110.749 88.0657C112.547 89.0647 113.946 90.4189 114.945 92.1282L111.615 94.0595C110.993 92.9052 110.083 91.995 108.884 91.329C107.708 90.6409 106.387 90.2968 104.922 90.2968C102.458 90.2968 100.437 91.0848 98.8613 92.661C97.3296 94.2149 96.5637 96.2129 96.5637 98.6548C96.5637 101.097 97.3296 103.095 98.8613 104.649C100.437 106.225 102.458 107.013 104.922 107.013C106.387 107.013 107.719 106.68 108.918 106.014C110.116 105.326 111.015 104.404 111.615 103.25L114.945 105.148C113.99 106.835 112.603 108.201 110.782 109.244C109.029 110.243 107.075 110.742 104.922 110.742ZM116.132 87.0002H133.115V90.6631H126.555V110.309H122.725V90.6631H116.132V87.0002ZM153.761 110.309H149.932V94.4924L138.943 110.309H135.946V87.0002H139.776V102.817L150.764 87.0002H153.761V110.309ZM175.566 87.0002V106.647H178.063V114.772H174.234V110.309H158.417V87.0002H162.246V106.647H171.736V87.0002H175.566ZM199.222 110.309H195.393V94.4924L184.404 110.309H181.407V87.0002H185.237V102.817L196.225 87.0002H199.222V110.309ZM217.463 84.6692H208.14V81.5391H217.463V84.6692ZM221.692 110.309H217.863V94.4924L206.874 110.309H203.877V87.0002H207.707V102.817L218.696 87.0002H221.692V110.309Z" fill="white"/>
<path d="M1 24L7 21V35.5L22 23.5L27 26.2272V51.5L20.5 48.5V33L6 45L1 42.5V24Z" fill="#0044FF" stroke="#0044FF"/>
<path d="M1 83.5L7 80.5V95L22 83L27 85.7272V110.5L20.5 108.334V92.5L6 104.5L1 102V83.5Z" fill="#0044FF" stroke="#0044FF"/>
<path d="M7 78.5L1 81.5V56L7 54L20.5 66V50.5L27 53.5V72.5L21.5 75L7 63V78.5Z" fill="white" stroke="white"/>
</svg>
