<svg width="1090" height="148" viewBox="0 0 1090 148" fill="none" xmlns="http://www.w3.org/2000/svg">
<path opacity="0.1" d="M79.266 107.842C79.266 105.607 78.9373 103.602 78.28 101.827C77.6227 99.9869 76.4066 98.2779 74.6318 96.7003C72.857 95.1227 70.2934 93.5451 66.9411 91.9675C63.6544 90.3242 59.316 88.6151 53.9259 86.8404C47.6156 84.7369 41.5353 82.3705 35.685 79.7412C29.8348 77.0461 24.609 73.9238 20.0077 70.3743C15.4064 66.7589 11.7583 62.552 9.0632 57.7535C6.36815 52.8893 5.02062 47.2363 5.02062 40.7944C5.02062 34.6155 6.40102 29.0611 9.1618 24.1311C11.9226 19.1354 15.768 14.8956 20.6979 11.4118C25.6936 7.86222 31.5439 5.16717 38.2486 3.32665C44.9534 1.4204 52.2826 0.467269 60.2363 0.467269C70.7536 0.467269 80.0219 2.30779 88.0413 5.98884C96.1265 9.60415 102.437 14.7642 106.972 21.4689C111.574 28.108 113.874 35.9631 113.874 45.0342H79.4632C79.4632 41.4189 78.7073 38.2308 77.1954 35.4701C75.7493 32.7093 73.5472 30.5401 70.5892 28.9625C67.6312 27.3849 63.9173 26.5961 59.4475 26.5961C55.1091 26.5961 51.4609 27.2534 48.503 28.5681C45.545 29.8828 43.3101 31.6575 41.7982 33.8925C40.2863 36.0617 39.5304 38.4609 39.5304 41.0902C39.5304 43.2594 40.122 45.2314 41.3052 47.0062C42.5541 48.7152 44.2961 50.3257 46.531 51.8376C48.8316 53.3494 51.5924 54.7955 54.8133 56.1759C58.1 57.5563 61.781 58.9039 65.8565 60.2185C73.4815 62.6506 80.252 65.3785 86.1679 68.4023C92.1496 71.3602 97.1782 74.7455 101.254 78.558C105.395 82.3048 108.517 86.5774 110.621 91.3759C112.79 96.1744 113.874 101.597 113.874 107.645C113.874 114.087 112.625 119.805 110.128 124.801C107.63 129.797 104.047 134.037 99.3803 137.52C94.7132 140.939 89.1259 143.535 82.6184 145.31C76.1108 147.085 68.8473 147.972 60.8279 147.972C53.4658 147.972 46.2023 147.052 39.0374 145.211C31.9383 143.305 25.4964 140.413 19.7119 136.534C13.9274 132.59 9.29326 127.562 5.80942 121.449C2.39131 115.27 0.68225 107.941 0.68225 99.4611H35.3892C35.3892 103.668 35.948 107.218 37.0654 110.11C38.1829 113.002 39.8262 115.336 41.9954 117.11C44.1646 118.819 46.8268 120.068 49.982 120.857C53.1371 121.58 56.7524 121.942 60.8279 121.942C65.232 121.942 68.7816 121.317 71.4766 120.068C74.1717 118.754 76.1437 117.045 77.3926 114.941C78.6415 112.772 79.266 110.406 79.266 107.842ZM213.361 97.3905H247.871C247.411 107.382 244.716 116.19 239.786 123.815C234.856 131.44 228.02 137.389 219.277 141.662C210.6 145.869 200.346 147.972 188.514 147.972C178.917 147.972 170.339 146.362 162.78 143.141C155.286 139.92 148.91 135.286 143.651 129.238C138.458 123.191 134.482 115.861 131.721 107.25C129.026 98.6394 127.678 88.9438 127.678 78.1636V70.3743C127.678 59.594 129.092 49.8984 131.918 41.2874C134.81 32.6107 138.886 25.2486 144.144 19.2012C149.469 13.088 155.845 8.42095 163.273 5.20004C170.7 1.97913 178.95 0.368669 188.021 0.368669C200.51 0.368669 211.061 2.60359 219.672 7.07343C228.283 11.5433 234.954 17.6893 239.687 25.5115C244.42 33.268 247.214 42.1091 248.068 52.0348H213.558C213.427 46.6447 212.507 42.142 210.798 38.5266C209.089 34.8456 206.393 32.0848 202.712 30.2443C199.031 28.4038 194.134 27.4835 188.021 27.4835C183.748 27.4835 180.035 28.2723 176.879 29.8499C173.724 31.4275 171.095 33.9253 168.991 37.3434C166.888 40.7616 165.31 45.1985 164.259 50.6544C163.273 56.0445 162.78 62.552 162.78 70.1771V78.1636C162.78 85.7886 163.24 92.2962 164.16 97.6863C165.08 103.076 166.559 107.48 168.597 110.899C170.635 114.317 173.264 116.847 176.485 118.491C179.772 120.068 183.781 120.857 188.514 120.857C193.773 120.857 198.21 120.035 201.825 118.392C205.44 116.683 208.234 114.12 210.206 110.701C212.178 107.218 213.23 102.781 213.361 97.3905ZM360.965 59.4297V86.0516H287.311V59.4297H360.965ZM298.847 2.43926V146H264.238V2.43926H298.847ZM384.234 2.43926V146H349.724V2.43926H384.234ZM527.696 71.3602V77.1776C527.696 88.155 526.151 98.015 523.062 106.757C520.038 115.434 515.733 122.862 510.145 129.041C504.558 135.154 497.952 139.854 490.327 143.141C482.702 146.362 474.288 147.972 465.085 147.972C455.817 147.972 447.338 146.362 439.647 143.141C432.022 139.854 425.383 135.154 419.73 129.041C414.142 122.862 409.804 115.434 406.715 106.757C403.691 98.015 402.179 88.155 402.179 77.1776V71.3602C402.179 60.3828 403.691 50.5229 406.715 41.7804C409.804 33.0379 414.11 25.6101 419.631 19.497C425.218 13.3181 431.825 8.61815 439.45 5.39724C447.14 2.11059 455.62 0.467269 464.888 0.467269C474.091 0.467269 482.505 2.11059 490.13 5.39724C497.82 8.61815 504.46 13.3181 510.047 19.497C515.634 25.6101 519.972 33.0379 523.062 41.7804C526.151 50.5229 527.696 60.3828 527.696 71.3602ZM492.595 77.1776V71.163C492.595 64.0639 491.97 57.8193 490.721 52.4292C489.538 46.9733 487.763 42.4049 485.397 38.7238C483.031 35.0428 480.105 32.282 476.622 30.4415C473.204 28.5352 469.292 27.5821 464.888 27.5821C460.287 27.5821 456.277 28.5352 452.859 30.4415C449.441 32.282 446.582 35.0428 444.281 38.7238C441.98 42.4049 440.238 46.9733 439.055 52.4292C437.938 57.8193 437.379 64.0639 437.379 71.163V77.1776C437.379 84.211 437.938 90.4557 439.055 95.9115C440.238 101.302 441.98 105.87 444.281 109.617C446.647 113.364 449.54 116.19 452.958 118.096C456.442 120.003 460.484 120.956 465.085 120.956C469.49 120.956 473.401 120.003 476.819 118.096C480.237 116.19 483.096 113.364 485.397 109.617C487.763 105.87 489.538 101.302 490.721 95.9115C491.97 90.4557 492.595 84.211 492.595 77.1776ZM667.116 71.3602V77.1776C667.116 88.155 665.571 98.015 662.481 106.757C659.458 115.434 655.152 122.862 649.565 129.041C643.978 135.154 637.372 139.854 629.746 143.141C622.121 146.362 613.708 147.972 604.505 147.972C595.237 147.972 586.757 146.362 579.066 143.141C571.441 139.854 564.802 135.154 559.149 129.041C553.562 122.862 549.224 115.434 546.134 106.757C543.11 98.015 541.599 88.155 541.599 77.1776V71.3602C541.599 60.3828 543.11 50.5229 546.134 41.7804C549.224 33.0379 553.529 25.6101 559.051 19.497C564.638 13.3181 571.244 8.61815 578.869 5.39724C586.56 2.11059 595.039 0.467269 604.308 0.467269C613.51 0.467269 621.924 2.11059 629.549 5.39724C637.24 8.61815 643.879 13.3181 649.466 19.497C655.054 25.6101 659.392 33.0379 662.481 41.7804C665.571 50.5229 667.116 60.3828 667.116 71.3602ZM632.014 77.1776V71.163C632.014 64.0639 631.39 57.8193 630.141 52.4292C628.958 46.9733 627.183 42.4049 624.817 38.7238C622.45 35.0428 619.525 32.282 616.041 30.4415C612.623 28.5352 608.712 27.5821 604.308 27.5821C599.707 27.5821 595.697 28.5352 592.279 30.4415C588.861 32.282 586.001 35.0428 583.701 38.7238C581.4 42.4049 579.658 46.9733 578.475 52.4292C577.357 57.8193 576.799 64.0639 576.799 71.163V77.1776C576.799 84.211 577.357 90.4557 578.475 95.9115C579.658 101.302 581.4 105.87 583.701 109.617C586.067 113.364 588.959 116.19 592.377 118.096C595.861 120.003 599.904 120.956 604.505 120.956C608.909 120.956 612.82 120.003 616.238 118.096C619.656 116.19 622.516 113.364 624.817 109.617C627.183 105.87 628.958 101.302 630.141 95.9115C631.39 90.4557 632.014 84.211 632.014 77.1776ZM779.913 119.378V146H707.344V119.378H779.913ZM719.669 2.43926V146H685.061V2.43926H719.669ZM871.118 82.009L844.693 75.7972L853.37 2.43926H937.278V28.2723H880.485L877.231 56.7675C878.809 55.8473 881.471 54.7627 885.218 53.5138C889.03 52.1991 893.237 51.5418 897.838 51.5418C904.937 51.5418 911.215 52.6264 916.671 54.7955C922.192 56.899 926.859 60.0213 930.672 64.1625C934.484 68.2379 937.344 73.2665 939.25 79.2482C941.222 85.2299 942.208 92.0661 942.208 99.7569C942.208 105.936 941.189 111.917 939.151 117.702C937.179 123.421 934.123 128.581 929.982 133.182C925.906 137.718 920.746 141.333 914.502 144.028C908.257 146.657 900.862 147.972 892.317 147.972C885.941 147.972 879.729 146.986 873.681 145.014C867.634 143.042 862.178 140.216 857.314 136.534C852.515 132.788 848.703 128.285 845.876 123.026C843.116 117.702 841.768 111.753 841.834 105.18H875.259C875.456 108.664 876.278 111.687 877.724 114.251C879.17 116.815 881.109 118.819 883.541 120.266C886.039 121.646 888.899 122.336 892.12 122.336C895.406 122.336 898.134 121.679 900.303 120.364C902.472 119.049 904.182 117.242 905.43 114.941C906.679 112.641 907.567 110.011 908.093 107.053C908.619 104.03 908.881 100.841 908.881 97.4891C908.881 93.9395 908.487 90.7515 907.698 87.9249C906.975 85.0984 905.792 82.6992 904.149 80.7272C902.505 78.6895 900.369 77.1447 897.74 76.093C895.176 75.0413 892.087 74.5154 888.471 74.5154C883.673 74.5154 879.893 75.3371 877.132 76.9804C874.372 78.6237 872.367 80.2999 871.118 82.009ZM1022.76 32.6107L987.761 146H950.589L1003.34 2.43926H1026.9L1022.76 32.6107ZM1051.75 146L1016.65 32.6107L1012.12 2.43926H1035.98L1089.02 146H1051.75ZM1050.37 92.4605V119.181H976.718V92.4605H1050.37Z" fill="#E9EFFF" fill-opacity="0.6"/>
</svg>
