<svg width="1089" height="148" viewBox="0 0 1089 148" fill="none" xmlns="http://www.w3.org/2000/svg">
<path d="M78.8941 107.842C78.8941 105.607 78.5654 103.602 77.9081 101.827C77.2508 99.9869 76.0347 98.2779 74.2599 96.7003C72.4851 95.1227 69.9215 93.5451 66.5692 91.9675C63.2825 90.3242 58.9441 88.6151 53.554 86.8404C47.2437 84.7369 41.1634 82.3705 35.3132 79.7412C29.4629 77.0461 24.2372 73.9238 19.6358 70.3743C15.0345 66.7589 11.3864 62.552 8.69131 57.7535C5.99626 52.8893 4.64874 47.2363 4.64874 40.7944C4.64874 34.6155 6.02913 29.0611 8.78991 24.1311C11.5507 19.1354 15.3961 14.8956 20.326 11.4118C25.3217 7.86222 31.172 5.16717 37.8767 3.32665C44.5815 1.4204 51.9107 0.467269 59.8644 0.467269C70.3817 0.467269 79.65 2.30779 87.6694 5.98884C95.7546 9.60415 102.065 14.7642 106.601 21.4689C111.202 28.108 113.502 35.9631 113.502 45.0342H79.0913C79.0913 41.4189 78.3354 38.2308 76.8235 35.4701C75.3774 32.7093 73.1753 30.5401 70.2173 28.9625C67.2594 27.3849 63.5455 26.5961 59.0756 26.5961C54.7372 26.5961 51.0891 27.2534 48.1311 28.5681C45.1731 29.8828 42.9382 31.6575 41.4263 33.8925C39.9145 36.0617 39.1585 38.4609 39.1585 41.0902C39.1585 43.2594 39.7501 45.2314 40.9333 47.0062C42.1822 48.7152 43.9242 50.3257 46.1591 51.8376C48.4597 53.3494 51.2205 54.7955 54.4414 56.1759C57.7281 57.5563 61.4091 58.9039 65.4846 60.2185C73.1096 62.6506 79.8801 65.3785 85.7961 68.4023C91.7777 71.3602 96.8063 74.7455 100.882 78.558C105.023 82.3048 108.145 86.5774 110.249 91.3759C112.418 96.1744 113.502 101.597 113.502 107.645C113.502 114.087 112.254 119.805 109.756 124.801C107.258 129.797 103.675 134.037 99.0084 137.52C94.3413 140.939 88.754 143.535 82.2465 145.31C75.7389 147.085 68.4754 147.972 60.456 147.972C53.0939 147.972 45.8304 147.052 38.6655 145.211C31.5664 143.305 25.1245 140.413 19.34 136.534C13.5555 132.59 8.92138 127.562 5.43753 121.449C2.01942 115.27 0.310362 107.941 0.310362 99.4611H35.0174C35.0174 103.668 35.5761 107.218 36.6935 110.11C37.811 113.002 39.4543 115.336 41.6235 117.11C43.7927 118.819 46.4549 120.068 49.6101 120.857C52.7652 121.58 56.3806 121.942 60.456 121.942C64.8601 121.942 68.4097 121.317 71.1047 120.068C73.7998 118.754 75.7718 117.045 77.0207 114.941C78.2696 112.772 78.8941 110.406 78.8941 107.842ZM212.989 97.3905H247.499C247.039 107.382 244.344 116.19 239.414 123.815C234.484 131.44 227.648 137.389 218.905 141.662C210.229 145.869 199.974 147.972 188.142 147.972C178.545 147.972 169.967 146.362 162.408 143.141C154.914 139.92 148.538 135.286 143.28 129.238C138.087 123.191 134.11 115.861 131.349 107.25C128.654 98.6394 127.306 88.9438 127.306 78.1636V70.3743C127.306 59.594 128.72 49.8984 131.546 41.2874C134.438 32.6107 138.514 25.2486 143.773 19.2012C149.097 13.088 155.473 8.42095 162.901 5.20004C170.329 1.97913 178.578 0.368669 187.649 0.368669C200.138 0.368669 210.689 2.60359 219.3 7.07343C227.911 11.5433 234.583 17.6893 239.315 25.5115C244.048 33.268 246.842 42.1091 247.696 52.0348H213.186C213.055 46.6447 212.135 42.142 210.426 38.5266C208.717 34.8456 206.022 32.0848 202.341 30.2443C198.66 28.4038 193.762 27.4835 187.649 27.4835C183.377 27.4835 179.663 28.2723 176.508 29.8499C173.352 31.4275 170.723 33.9253 168.62 37.3434C166.516 40.7616 164.939 45.1985 163.887 50.6544C162.901 56.0445 162.408 62.552 162.408 70.1771V78.1636C162.408 85.7886 162.868 92.2962 163.788 97.6863C164.708 103.076 166.187 107.48 168.225 110.899C170.263 114.317 172.892 116.847 176.113 118.491C179.4 120.068 183.409 120.857 188.142 120.857C193.401 120.857 197.838 120.035 201.453 118.392C205.068 116.683 207.862 114.12 209.834 110.701C211.806 107.218 212.858 102.781 212.989 97.3905ZM360.593 59.4297V86.0516H286.939V59.4297H360.593ZM298.475 2.43926V146H263.867V2.43926H298.475ZM383.862 2.43926V146H349.352V2.43926H383.862ZM527.324 71.3602V77.1776C527.324 88.155 525.779 98.015 522.69 106.757C519.666 115.434 515.361 122.862 509.774 129.041C504.186 135.154 497.58 139.854 489.955 143.141C482.33 146.362 473.916 147.972 464.714 147.972C455.445 147.972 446.966 146.362 439.275 143.141C431.65 139.854 425.011 135.154 419.358 129.041C413.771 122.862 409.432 115.434 406.343 106.757C403.319 98.015 401.807 88.155 401.807 77.1776V71.3602C401.807 60.3828 403.319 50.5229 406.343 41.7804C409.432 33.0379 413.738 25.6101 419.259 19.497C424.847 13.3181 431.453 8.61815 439.078 5.39724C446.769 2.11059 455.248 0.467269 464.516 0.467269C473.719 0.467269 482.133 2.11059 489.758 5.39724C497.449 8.61815 504.088 13.3181 509.675 19.497C515.262 25.6101 519.601 33.0379 522.69 41.7804C525.779 50.5229 527.324 60.3828 527.324 71.3602ZM492.223 77.1776V71.163C492.223 64.0639 491.598 57.8193 490.349 52.4292C489.166 46.9733 487.391 42.4049 485.025 38.7238C482.659 35.0428 479.734 32.282 476.25 30.4415C472.832 28.5352 468.921 27.5821 464.516 27.5821C459.915 27.5821 455.905 28.5352 452.487 30.4415C449.069 32.282 446.21 35.0428 443.909 38.7238C441.608 42.4049 439.867 46.9733 438.683 52.4292C437.566 57.8193 437.007 64.0639 437.007 71.163V77.1776C437.007 84.211 437.566 90.4557 438.683 95.9115C439.867 101.302 441.608 105.87 443.909 109.617C446.276 113.364 449.168 116.19 452.586 118.096C456.07 120.003 460.112 120.956 464.714 120.956C469.118 120.956 473.029 120.003 476.447 118.096C479.865 116.19 482.724 113.364 485.025 109.617C487.391 105.87 489.166 101.302 490.349 95.9115C491.598 90.4557 492.223 84.211 492.223 77.1776ZM666.744 71.3602V77.1776C666.744 88.155 665.199 98.015 662.11 106.757C659.086 115.434 654.78 122.862 649.193 129.041C643.606 135.154 637 139.854 629.375 143.141C621.75 146.362 613.336 147.972 604.133 147.972C594.865 147.972 586.385 146.362 578.695 143.141C571.069 139.854 564.43 135.154 558.777 129.041C553.19 122.862 548.852 115.434 545.762 106.757C542.739 98.015 541.227 88.155 541.227 77.1776V71.3602C541.227 60.3828 542.739 50.5229 545.762 41.7804C548.852 33.0379 553.157 25.6101 558.679 19.497C564.266 13.3181 570.872 8.61815 578.497 5.39724C586.188 2.11059 594.668 0.467269 603.936 0.467269C613.139 0.467269 621.552 2.11059 629.177 5.39724C636.868 8.61815 643.507 13.3181 649.094 19.497C654.682 25.6101 659.02 33.0379 662.11 41.7804C665.199 50.5229 666.744 60.3828 666.744 71.3602ZM631.642 77.1776V71.163C631.642 64.0639 631.018 57.8193 629.769 52.4292C628.586 46.9733 626.811 42.4049 624.445 38.7238C622.078 35.0428 619.153 32.282 615.669 30.4415C612.251 28.5352 608.34 27.5821 603.936 27.5821C599.335 27.5821 595.325 28.5352 591.907 30.4415C588.489 32.282 585.629 35.0428 583.329 38.7238C581.028 42.4049 579.286 46.9733 578.103 52.4292C576.985 57.8193 576.427 64.0639 576.427 71.163V77.1776C576.427 84.211 576.985 90.4557 578.103 95.9115C579.286 101.302 581.028 105.87 583.329 109.617C585.695 113.364 588.587 116.19 592.005 118.096C595.489 120.003 599.532 120.956 604.133 120.956C608.537 120.956 612.448 120.003 615.866 118.096C619.285 116.19 622.144 113.364 624.445 109.617C626.811 105.87 628.586 101.302 629.769 95.9115C631.018 90.4557 631.642 84.211 631.642 77.1776ZM779.541 119.378V146H706.972V119.378H779.541ZM719.297 2.43926V146H684.689V2.43926H719.297ZM870.746 82.009L844.321 75.7972L852.998 2.43926H936.906V28.2723H880.113L876.859 56.7675C878.437 55.8473 881.099 54.7627 884.846 53.5138C888.658 52.1991 892.865 51.5418 897.466 51.5418C904.566 51.5418 910.843 52.6264 916.299 54.7955C921.82 56.899 926.488 60.0213 930.3 64.1625C934.113 68.2379 936.972 73.2665 938.878 79.2482C940.85 85.2299 941.836 92.0661 941.836 99.7569C941.836 105.936 940.817 111.917 938.78 117.702C936.808 123.421 933.751 128.581 929.61 133.182C925.534 137.718 920.374 141.333 914.13 144.028C907.885 146.657 900.49 147.972 891.945 147.972C885.569 147.972 879.357 146.986 873.31 145.014C867.262 143.042 861.806 140.216 856.942 136.534C852.144 132.788 848.331 128.285 845.505 123.026C842.744 117.702 841.396 111.753 841.462 105.18H874.887C875.084 108.664 875.906 111.687 877.352 114.251C878.798 116.815 880.737 118.819 883.17 120.266C885.667 121.646 888.527 122.336 891.748 122.336C895.034 122.336 897.762 121.679 899.931 120.364C902.101 119.049 903.81 117.242 905.059 114.941C906.308 112.641 907.195 110.011 907.721 107.053C908.247 104.03 908.51 100.841 908.51 97.4891C908.51 93.9395 908.115 90.7515 907.326 87.9249C906.603 85.0984 905.42 82.6992 903.777 80.7272C902.133 78.6895 899.997 77.1447 897.368 76.093C894.804 75.0413 891.715 74.5154 888.099 74.5154C883.301 74.5154 879.521 75.3371 876.761 76.9804C874 78.6237 871.995 80.2999 870.746 82.009ZM1022.39 32.6107L987.389 146H950.217L1002.97 2.43926H1026.53L1022.39 32.6107ZM1051.38 146L1016.28 32.6107L1011.74 2.43926H1035.6L1088.65 146H1051.38ZM1050 92.4605V119.181H976.346V92.4605H1050Z" fill="#0440E4"/>
</svg>
